<?xml version="1.0" encoding="utf-8"?>
<!-- Generator: Adobe Illustrator 16.0.0, SVG Export Plug-In . SVG Version: 6.00 Build 0)  -->
<!DOCTYPE svg PUBLIC "-//W3C//DTD SVG 1.1//EN" "http://www.w3.org/Graphics/SVG/1.1/DTD/svg11.dtd">
<svg version="1.1" id="Layer_1" xmlns="http://www.w3.org/2000/svg" xmlns:xlink="http://www.w3.org/1999/xlink" x="0px" y="0px"
	 width="512px" height="512px" viewBox="0 0 512 512" enable-background="new 0 0 512 512" xml:space="preserve">
<path fill="#69C299" d="M255.97,2.946c-139.059,0-252.192,113.12-252.192,252.167c0,139.058,113.134,252.192,252.192,252.192
	c139.054,0,252.179-113.134,252.18-252.193C508.15,116.066,395.025,2.946,255.97,2.946z M494.279,255.112c0,0.007,0,0.015,0,0.022
	l-27.757,6.21c-2.668,0.61-4.74,2.724-5.283,5.405l-0.622,3.102l-13.579,3.996c-2.276-8.994-5.981-23.487-7.052-26.685
	c-0.738-2.235-3.291-4.646-5.572-5.229c-2.521-0.638-7.269-1.911-24.443,13.857c-0.462,0.421-0.859,0.893-1.192,1.423l-7.22,11.527
	c-1.626,2.601-1.354,5.944,0.657,8.247l9.236,10.568l5.853,16.375l-13.029,29.963l-17.604,24.519l-33.186,33.159
	c-0.616,0.611-1.11,1.342-1.458,2.141c-6.38,14.683-13.79,31.182-15.164,33.443c-1.348,1.518-8.154,6.354-15.058,10.932
	l-17.66-17.677l-4.175-18.692l3.827-1.91c1.404-0.718,2.528-1.871,3.185-3.304l8.546-18.533c1.599-3.168,4.213-10.931,4.723-12.461
	c0.832-2.494,0.181-5.243-1.674-7.098l-12.531-12.517l-1.307-27.619c-0.12-2.588-1.672-4.891-4.017-5.976l-18.773-8.682
	c-2.018-0.921-4.347-0.841-6.284,0.243l-20.936,11.636l-16.491-19.776l-1.213-21.85l23.889-47.829l18.097-43.116
	c3.957-3.238,15.747-12.883,21.681-17.61c7.036-5.621,14.106-20.156,16.918-26.387l43.508-22.54l5.771-4.334
	c2.504-1.883,3.44-5.202,2.275-8.114l-7.192-17.975l23.627-30.717C450.965,97.788,494.278,171.484,494.279,255.112z M218.971,58.7
	L199.79,77.867L169.4,95.057l-29.393-3.265l2.498-14.129l18.937-11.351c1.769-1.056,2.974-2.858,3.285-4.903l2.872-18.761
	c0.143-0.908,0.095-1.828-0.123-2.722l-1.37-5.504c23.88-9.757,49.679-15.753,76.665-17.234
	c-4.86,4.973-11.046,10.459-17.527,14.001c-8.088,4.416-10.228,10.105-10.601,14.114C214.155,50.586,216.479,55.286,218.971,58.7z
	 M83.128,91.219v43.121l-3.841,2.302c-1.862,1.124-3.097,3.048-3.325,5.215l-6.773,63.583c-10.11,3.874-20.833,7.762-22.403,8.113
	c-0.922,0-1.829,0.177-2.676,0.543l-24.477,10.24C26.268,173.11,49.236,126.937,83.128,91.219z M24.74,312.863l25.33-10.816
	l17.908,13.925l-1.172,1.938c-1.571,2.616-1.247,5.946,0.792,8.222l25.981,28.854c1.313,1.448,3.189,2.288,5.153,2.288h5.411
	l24.647,13.682l7.138,3.576c-0.155,2.315-0.08,4.836,0.516,7.045c-0.956,2.424-4.104,7.773-7.336,12.406
	c-0.812,1.166-1.253,2.548-1.253,3.97v18.732c0,1.641,0.582,3.225,1.64,4.47l16.262,19.208l7.219,7.207
	c0.522,0.528,1.131,0.962,1.795,1.301l27.335,13.666l17.5,24.146C113.851,465.806,46.116,398.42,24.74,312.863z M255.97,493.434
	c-12.36,0-24.503-0.947-36.361-2.771l-27.271-37.634c-0.649-0.909-1.517-1.641-2.512-2.141l-27.856-13.926l-6.021-5.974
	l-14.224-16.838v-14.048c11.054-16.255,9.116-20.169,8.101-22.135c-0.217-0.906-0.014-3.874,0.427-6.094
	c0.595-3.062-0.915-6.15-3.705-7.547l-37.244-20.062c-1.03-0.568-2.188-0.864-3.366-0.864h-4.118l-20.48-22.744l1.693-2.818
	c1.808-3.021,1.084-6.894-1.693-9.047l-25.98-20.197c-1.983-1.557-4.667-1.883-6.976-0.906l-26.655,11.376
	c-2.668-14.252-4.079-28.94-4.079-43.954c0-5.083,0.179-10.123,0.494-15.127l30.592-12.792c2.859-0.61,9.869-2.737,29.415-10.348
	c2.418-0.935,4.112-3.142,4.383-5.73l6.854-64.355l4.246-2.547c2.087-1.245,3.367-3.508,3.367-5.946V77.742
	c16.778-15.05,35.69-27.766,56.229-37.619l0.451,1.807l-2.167,14.168l-18.854,11.298c-1.72,1.03-2.912,2.762-3.258,4.741
	l-4.335,24.531c-0.338,1.884,0.129,3.834,1.274,5.364c1.149,1.53,2.885,2.52,4.788,2.736l38.971,4.321
	c0.257,0.028,0.507,0.042,0.765,0.042c1.192,0,2.371-0.312,3.416-0.895l33.16-18.76c0.549-0.311,1.044-0.69,1.49-1.137
	l24.544-24.518c1.375-1.368,2.1-3.278,2.012-5.229c-0.088-1.938-1.003-3.779-2.499-5.026c-2.011-1.679-4.707-5.147-4.53-6.989
	c0.087-0.867,1.4-2.114,3.439-3.224c13.282-7.247,24.945-20.584,29.704-26.465c40.682,0.948,78.871,12.143,112.09,31.094
	l-25.121,32.662c-1.489,1.937-1.848,4.524-0.94,6.8l6.725,16.81l-45.356,23.556c-1.402,0.733-2.506,1.937-3.129,3.387
	c-3.325,7.734-9.807,20.074-13.822,23.284c-7.247,5.771-23.156,18.816-23.156,18.816c-0.874,0.718-1.563,1.639-1.998,2.682
	l-18.572,44.281l-24.517,49.062c-0.542,1.082-0.785,2.273-0.718,3.479l1.437,25.983c0.081,1.489,0.643,2.911,1.599,4.062
	l21.646,25.953c2.134,2.547,5.771,3.252,8.696,1.612l22.872-12.717l11.758,5.431l1.231,26.103c0.082,1.733,0.806,3.359,2.024,4.578
	l11.366,11.354c-0.849,2.409-1.918,5.295-2.668,6.785l-7.643,16.553l-6.487,3.251c-2.837,1.436-4.349,4.605-3.65,7.707l5.784,25.938
	c0.285,1.287,0.928,2.466,1.862,3.4l23.068,23.082c1.334,1.342,3.115,2.031,4.902,2.031c1.293,0,2.594-0.365,3.737-1.095
	c20.637-13.222,23.156-16.742,23.995-18.367c1.565-2.59,5.121-9.89,15.612-33.999l32.972-33.066l18.76-25.979
	c0.29-0.407,0.541-0.839,0.737-1.301l14.426-33.16c0.704-1.611,0.768-3.44,0.169-5.094l-7.219-20.195
	c-0.292-0.825-0.739-1.586-1.308-2.234l-6.712-7.682l3.976-6.352c2.94-2.643,6.11-5.242,8.669-7.127
	c1.892,7.127,4.681,18.098,6.651,25.953c0.454,1.843,1.638,3.4,3.278,4.336c1.637,0.936,3.574,1.152,5.404,0.637l24.512-7.207
	c2.479-0.718,4.332-2.762,4.849-5.281l0.555-2.791l19.89-4.447C486.391,394.208,382.56,493.434,255.97,493.434z"/>
</svg>
