<?xml version="1.0" encoding="utf-8"?>
<!-- Generator: Adobe Illustrator 16.0.0, SVG Export Plug-In . SVG Version: 6.00 Build 0)  -->
<!DOCTYPE svg PUBLIC "-//W3C//DTD SVG 1.1//EN" "http://www.w3.org/Graphics/SVG/1.1/DTD/svg11.dtd">
<svg version="1.1" id="Layer_1" xmlns="http://www.w3.org/2000/svg" xmlns:xlink="http://www.w3.org/1999/xlink" x="0px" y="0px"
	 width="512px" height="512px" viewBox="0 0 512 512" enable-background="new 0 0 512 512" xml:space="preserve">
<g>
	<path fill="#69C299" d="M424.99,217.912c-3.771,0-6.823,3.052-6.823,6.824v268.008h-88.358V292.705
		c0-3.771-3.052-6.824-6.823-6.824H187.942c-3.771,0-6.822,3.053-6.822,6.824v199.958c0,0.027,0.004,0.054,0.004,0.081H92.773
		V224.736c0-3.772-3.053-6.824-6.823-6.824c-3.771,0-6.823,3.052-6.823,6.824v274.833c0,3.771,3.052,6.822,6.823,6.822h339.04
		c3.772,0,6.824-3.052,6.824-6.823V224.736C431.814,220.964,428.761,217.912,424.99,217.912z M194.765,492.663V299.527h121.396
		v193.217h-121.4C194.761,492.717,194.765,492.69,194.765,492.663z"/>
	<path fill="#69C299" d="M505.086,203.84L259.441,28.135c-2.371-1.706-5.568-1.706-7.941,0L5.854,203.84
		c-3.064,2.185-3.771,6.45-1.579,9.515c2.192,3.079,6.457,3.785,9.522,1.573L255.471,42.075l241.672,172.853
		c1.199,0.866,2.585,1.279,3.971,1.279c2.118,0,4.211-0.986,5.544-2.852C508.857,210.29,508.15,206.025,505.086,203.84z"/>
</g>
</svg>
