<?xml version="1.0" encoding="utf-8"?>
<!-- Generator: Adobe Illustrator 16.0.0, SVG Export Plug-In . SVG Version: 6.00 Build 0)  -->
<!DOCTYPE svg PUBLIC "-//W3C//DTD SVG 1.1//EN" "http://www.w3.org/Graphics/SVG/1.1/DTD/svg11.dtd">
<svg version="1.1" id="Layer_1" xmlns="http://www.w3.org/2000/svg" xmlns:xlink="http://www.w3.org/1999/xlink" x="0px" y="0px"
	 width="512px" height="512px" viewBox="0 0 512 512" enable-background="new 0 0 512 512" xml:space="preserve">
<path fill="#69C299" d="M503.919,144.351L417.3,78.986c-1.146-0.864-2.552-1.335-3.994-1.335H305.09
	c-1.771,0-3.461,0.707-4.71,1.963l-32.473,32.675c-2.603,2.618-2.603,6.86,0,9.479c2.603,2.618,6.817,2.618,9.42,0l30.521-30.712
	h103.231l82.185,62.013v252.698l-216.444,30.66l-67.203-165.49l63.066,0.07c0.013,0,0.013,0,0.013,0
	c3.684,0,6.661-2.997,6.661-6.688c0-3.705-2.979-6.717-6.646-6.717l-211.171-0.234c-0.007,0-0.013-0.001-0.02-0.001
	c-23.184,0-42.048-18.981-42.048-42.311c0-23.328,18.864-42.297,42.048-42.297h308.489c3.682,0,6.661-2.998,6.661-6.703
	c0-3.705-2.979-6.703-6.661-6.703H61.52c-30.534,0-55.37,24.991-55.37,55.703c0.001,30.718,24.824,55.703,55.347,55.715
	c0.004,0,0.008,0.001,0.012,0.001l133.707,0.149l71.237,175.415c1.041,2.541,3.487,4.164,6.166,4.164c0.3,0,0.61-0.026,0.924-0.065
	l227.308-32.202c3.291-0.473,5.737-3.301,5.737-6.639V149.718C506.586,147.611,505.597,145.62,503.919,144.351z"/>
</svg>
